<svg xmlns="http://www.w3.org/2000/svg" viewBox="0 0 400 400">
  <defs>
    <linearGradient id="tile" x1="0" y1="0" x2="1" y2="1">
      <stop offset="0" stop-color="#33333A"/><stop offset="1" stop-color="#17171A"/>
    </linearGradient>
    <linearGradient id="side" x1="0" y1="0" x2="0" y2="1">
      <stop offset="0" stop-color="#9A9BA5"/><stop offset="1" stop-color="#6A6B75"/>
    </linearGradient>
    <linearGradient id="hot" x1="0" y1="0" x2="0" y2="1">
      <stop offset="0" stop-color="#FF7A4D"/><stop offset="1" stop-color="#F5320E"/>
    </linearGradient>
    <radialGradient id="glow" cx=".3" cy=".22" r=".8">
      <stop offset="0" stop-color="#FFFFFF" stop-opacity=".22"/>
      <stop offset="1" stop-color="#FFFFFF" stop-opacity="0"/>
    </radialGradient>
    <radialGradient id="bulb" cx=".34" cy=".28" r=".82">
      <stop offset="0" stop-color="#FFFFFF"/>
      <stop offset=".55" stop-color="#E4E5EB"/>
      <stop offset="1" stop-color="#A8A9B4"/>
    </radialGradient>
    <radialGradient id="shine" cx=".5" cy=".5" r=".5">
      <stop offset="0" stop-color="#FF9A73" stop-opacity=".55"/>
      <stop offset="1" stop-color="#FF9A73" stop-opacity="0"/>
    </radialGradient>
  </defs>
  <rect width="400" height="400" rx="96" fill="url(#tile)"/>
  <rect width="400" height="400" rx="96" fill="url(#glow)"/>
  <ellipse cx="200" cy="322" rx="112" ry="20" fill="#000" opacity=".33"/>
  <circle cx="200" cy="180" r="104" fill="url(#shine)"/>
  <path d="M200 84a86 86 0 0 0-52 154v26a14 14 0 0 0 14 14h76a14 14 0 0 0 14-14v-26A86 86 0 0 0 200 84z" fill="url(#bulb)"/>
  <ellipse cx="168" cy="140" rx="26" ry="34" fill="#fff" opacity=".75" transform="rotate(-22 168 140)"/>
  <path d="M178 232v-18l14-16-14-16 22-14 22 14-14 16 14 16v18" stroke="url(#hot)" stroke-width="11" fill="none" stroke-linecap="round" stroke-linejoin="round"/>
  <rect x="160" y="288" width="80" height="20" rx="10" fill="url(#side)"/>
  <rect x="170" y="316" width="60" height="18" rx="9" fill="url(#side)" opacity=".8"/>
</svg>
